<svg id="Calque_1" data-name="Calque 1" xmlns="http://www.w3.org/2000/svg" viewBox="0 0 104.87 64.3"><defs><style>.cls-1{fill:#6cbf65;}</style></defs><title>logo-tokyo-frog-kings-over</title><path class="cls-1" d="M700.45,353.24a7.57,7.57,0,0,1,2.49.42,12.09,12.09,0,0,1-2.87.37,9.8,9.8,0,0,1-2.42-.3,8.48,8.48,0,0,1,2.8-.49m0-1.39a11.22,11.22,0,0,0-6,1.91,9.38,9.38,0,0,0,5.64,1.66,14.51,14.51,0,0,0,6.14-1.47,8.81,8.81,0,0,0-5.76-2.1" transform="translate(-623.56 -351.85)"/><path class="cls-1" d="M717.32,356.47s-7-2.7-12.49-.83-7.3.49-10.35-.22-8.2-1.71-13.1,1.42a23.6,23.6,0,0,1,8.19,1.26,20.89,20.89,0,0,0,16.87-.67,16.88,16.88,0,0,1,10.88-1" transform="translate(-623.56 -351.85)"/><path class="cls-1" d="M719.08,359.71c.4-1.2-4-4.37-9.89-2.1s-10.63,4.54-17.79,2.1-16.57-3.4-26.36,2a25.17,25.17,0,0,1,14.61,2.53c6.43,3.12,16.2,6,23.93,1.18,6.48-4,9.85-5,12.66-4.93s2.84-.76,2.84-.76" transform="translate(-623.56 -351.85)"/><path class="cls-1" d="M718.55,361.27s-10.34-1.91-21.68,12.9c-3.3,4.3-1.13,8.64,1,9,2.28.44,1.91-3.09,4.06-7.88,3.11-6.94,7.5-10.13,16.64-14.06" transform="translate(-623.56 -351.85)"/><path class="cls-1" d="M699.26,369a22.54,22.54,0,0,1-16.47-1c-8.54-4.08-19.22-7.52-29.54-.56,0,0,11.38-1.35,19.82,3.87,10.08,6.26,18.08,3.57,26.19-2.26" transform="translate(-623.56 -351.85)"/><path class="cls-1" d="M644.31,373.88a11.79,11.79,0,0,1,1.06-1.14,13.41,13.41,0,0,1,3.79-2.58,14.16,14.16,0,0,1,3.29-1,17.09,17.09,0,0,1,4.12-.26,23.77,23.77,0,0,1,4.59.73,35.38,35.38,0,0,1,4.7,1.62,81.69,81.69,0,0,1,9.21,4.81l2.23,1.3.56.31.5.27,1.19.64c1.59.84,3.15,1.66,4.73,2.41a42.84,42.84,0,0,0,4.86,2c.43.14.85.27,1.28.39l.34.09.27.06.16.05.67.19c.91.24,1.85.47,2.82.67a46.1,46.1,0,0,0,6,.91,19.79,19.79,0,0,0,3.08,0,8.55,8.55,0,0,0,3.11-.79,6.34,6.34,0,0,1-.88,1.28,11.7,11.7,0,0,1-3.61,2.64,24.87,24.87,0,0,1-6.65,2.14,31.86,31.86,0,0,1-4.31.51l-1.19,0H689a25.77,25.77,0,0,1-2.59-.17,30.48,30.48,0,0,1-5.39-1.13,41.32,41.32,0,0,1-5.33-2.07l-1.29-.62-.64-.33-.7-.36-.69-.39-.65-.38c-.44-.26-.86-.52-1.28-.79-1.69-1.08-3.3-2.22-4.87-3.37s-3.13-2.31-4.69-3.4a40.58,40.58,0,0,0-4.78-3,16.61,16.61,0,0,0-5.38-1.76,16.29,16.29,0,0,0-6.45.51" transform="translate(-623.56 -351.85)"/><path class="cls-1" d="M640.21,377.28s.25-.12.71-.31a14.86,14.86,0,0,1,2.1-.7,15.54,15.54,0,0,1,3.48-.52,16.15,16.15,0,0,1,4.66.5,19.72,19.72,0,0,1,5.14,2.14,27.35,27.35,0,0,1,2.48,1.65L661,381.8a61.68,61.68,0,0,0,10.11,7,12.94,12.94,0,0,1-2.9.15,18.28,18.28,0,0,1-3.38-.52,22.63,22.63,0,0,1-4.19-1.55c-.74-.35-1.49-.75-2.24-1.19-.38-.21-.76-.44-1.14-.68l-.6-.39-.56-.39c-1.41-1-2.87-2-4.43-2.91a30,30,0,0,0-5.12-2.46,37.8,37.8,0,0,0-6.36-1.62" transform="translate(-623.56 -351.85)"/><path class="cls-1" d="M700.56,369.88s-4.88,10-2.71,13.33c0,0-11.77-.47-19.83-8.06,0,0,13.76,4.74,22.54-5.27" transform="translate(-623.56 -351.85)"/><path class="cls-1" d="M633.79,382.13s.23-.24.72-.64a8.45,8.45,0,0,1,4.56-1.76,10.56,10.56,0,0,1,2.55.09,14.71,14.71,0,0,1,2.76.74,20.3,20.3,0,0,1,2.77,1.29,48.67,48.67,0,0,1,5.34,3.52l1.29.93.32.23.29.19.69.47c.92.61,1.83,1.22,2.75,1.77a25.71,25.71,0,0,0,2.85,1.5l.76.32.2.07.16.06.1,0,.4.15c.53.21,1.1.41,1.68.59a27.35,27.35,0,0,0,3.59.93,11.63,11.63,0,0,0,1.88.2,5.11,5.11,0,0,0,1.95-.29,3.33,3.33,0,0,1-.61.73,7.09,7.09,0,0,1-2.38,1.39,15.47,15.47,0,0,1-4.2.9,19.52,19.52,0,0,1-2.67,0l-.74-.06h-.31l-.38,0c-.52-.07-1.05-.15-1.58-.27a18.31,18.31,0,0,1-3.23-1,24.29,24.29,0,0,1-3.13-1.6l-.75-.46-.38-.24-.4-.26-.4-.29-.37-.27c-.25-.19-.5-.37-.74-.57-1-.76-1.88-1.56-2.77-2.36s-1.77-1.61-2.66-2.38a25,25,0,0,0-2.74-2.11,10.3,10.3,0,0,0-3.18-1.42,10.19,10.19,0,0,0-4-.08" transform="translate(-623.56 -351.85)"/><path class="cls-1" d="M645.55,391s-7.32-9.49-11.9-6.13c0,0,7.51,7.41,11.9,6.13" transform="translate(-623.56 -351.85)"/><polygon class="cls-1" points="3.29 55.69 1.97 55.69 0 53.69 7.26 53.71 7.26 55.69 5.94 55.69 5.94 60.33 3.29 62.97 3.29 55.69"/><path class="cls-1" d="M632.81,413.5a1.25,1.25,0,0,1-.93-.39,1.27,1.27,0,0,1-.39-.93v-5.3a1.33,1.33,0,0,1,1.32-1.32h4a1.33,1.33,0,0,1,1.32,1.32v5.3a1.25,1.25,0,0,1-.39.93,1.27,1.27,0,0,1-.93.39Zm2.65-6h-1.32v4h1.32Z" transform="translate(-623.56 -351.85)"/><polygon class="cls-1" points="17.85 59 17.85 61.65 15.21 61.65 15.21 52.38 17.85 55.03 17.85 56.35 21.82 52.38 21.82 56.35 20.5 57.68 21.82 59 21.82 62.97 17.85 59"/><path class="cls-1" d="M650,412.18l-1.32,1.32h-1.32a1.33,1.33,0,0,1-1.33-1.32v-5.3l2.65-2.65v7.28H650v-5.95h2.65v7.94L650,416.15Z" transform="translate(-623.56 -351.85)"/><path class="cls-1" d="M654.66,413.5a1.33,1.33,0,0,1-1.33-1.32v-5.3a1.33,1.33,0,0,1,1.33-1.32h4a1.33,1.33,0,0,1,1.32,1.32v5.3a1.25,1.25,0,0,1-.39.93,1.27,1.27,0,0,1-.93.39Zm2.64-6H656v4h1.32Z" transform="translate(-623.56 -351.85)"/><polygon class="cls-1" points="40.04 60.33 40.04 55.69 40.7 55.69 38.72 53.71 46.66 53.71 44.68 55.69 42.69 55.69 42.69 57.02 44.01 57.02 44.01 58.34 42.69 58.34 42.69 62.97 40.04 60.33"/><path class="cls-1" d="M673.54,410.85l-1.33-1.32,1.33-1.32v-.67h-1.33v6h-2.65v-6.08l1.78-1.87h3.52a1.25,1.25,0,0,1,.93.39,1.27,1.27,0,0,1,.39.93v1.33l-1.32,1.32,1.32,1.32v1.33l-2.64,2.64Z" transform="translate(-623.56 -351.85)"/><path class="cls-1" d="M678.17,413.5a1.33,1.33,0,0,1-1.33-1.32v-5.3a1.33,1.33,0,0,1,1.33-1.32h4a1.25,1.25,0,0,1,.93.39,1.27,1.27,0,0,1,.39.93v5.3a1.25,1.25,0,0,1-.39.93,1.27,1.27,0,0,1-.93.39Zm2.65-6h-1.33v4h1.33Z" transform="translate(-623.56 -351.85)"/><path class="cls-1" d="M688.1,412.18l-1.33,1.32h-1.32a1.28,1.28,0,0,1-.94-.39,1.3,1.3,0,0,1-.38-.93v-5.3a1.3,1.3,0,0,1,.38-.93,1.28,1.28,0,0,1,.94-.39h6.62l-2,2h-3.31v4h1.33v-1.32h-.67v-1.32h3.31v3.31l-2.64,2.64Z" transform="translate(-623.56 -351.85)"/><polygon class="cls-1" points="74.11 59 74.11 61.65 71.46 61.65 71.46 52.38 74.11 55.03 74.11 56.35 78.08 52.38 78.08 56.35 76.76 57.68 78.08 59 78.08 62.97 74.11 59"/><polygon class="cls-1" points="78.74 53.71 81.39 53.71 81.39 60.33 78.74 62.97 78.74 53.71"/><polygon class="cls-1" points="84.7 59 84.7 61.65 82.05 61.65 82.05 52.38 86.02 56.35 86.02 53.71 88.67 53.71 88.67 62.97 84.7 59"/><path class="cls-1" d="M716.87,412.18l-1.33,1.32h-1.32a1.24,1.24,0,0,1-.93-.39,1.27,1.27,0,0,1-.39-.93v-5.3a1.27,1.27,0,0,1,.39-.93,1.25,1.25,0,0,1,.93-.39h6.62l-2,2h-3.32v4h1.33v-1.32h-.66v-1.32h3.31v3.31l-2.65,2.64Z" transform="translate(-623.56 -351.85)"/><path class="cls-1" d="M719.17,413.5l2-2h2.65l-3.31-3.3v-1.33a1.33,1.33,0,0,1,1.33-1.32h6.62l-2,2H723.8l3.31,3.31v1.33a1.25,1.25,0,0,1-.39.93,1.27,1.27,0,0,1-.93.39Z" transform="translate(-623.56 -351.85)"/></svg>