<svg id="Calque_1" data-name="Calque 1" xmlns="http://www.w3.org/2000/svg" viewBox="0 0 156.74 48.34"><defs><style>.cls-1{fill:#22418a;}</style></defs><title>logo-energy-standard-over</title><path class="cls-1" d="M642.42,392.61a9,9,0,0,1-6.19-.3l-.27-.12a9.08,9.08,0,0,1-3.71-3.15,9.34,9.34,0,0,1-1.13-2.36,9,9,0,0,1,3.58-10.16,8.66,8.66,0,0,1,1.26-.71,10.23,10.23,0,0,1,1.09-.42,9.12,9.12,0,0,1,2.69-.4,9,9,0,0,1,3.5.7,9.2,9.2,0,0,1,1.54.84,24.12,24.12,0,1,0,0,15h0a8.79,8.79,0,0,1-2.35,1.13m-18.18-2.07a16.84,16.84,0,0,0,6.09,7.4h0a16.36,16.36,0,0,1-24.5-10.18h11.6v-7.15H605.76a16.38,16.38,0,0,1,24.59-10.57,16.82,16.82,0,0,0-6.11,20.49" transform="translate(-597.61 -359.83)"/><polygon class="cls-1" points="73.46 11.6 68.57 11.6 68.42 12.56 72.29 12.56 71.77 15.86 67.9 15.86 67.74 16.82 72.63 16.82 72.09 20.29 63.2 20.29 65.13 8.13 74.02 8.13 73.46 11.6"/><polygon class="cls-1" points="82.76 8.13 86.76 8.13 84.83 20.29 80.4 20.29 78.05 14.46 77.12 20.29 73.13 20.29 75.06 8.13 79.49 8.13 81.83 13.96 82.76 8.13"/><polygon class="cls-1" points="96.13 11.6 91.24 11.6 91.09 12.56 94.96 12.56 94.44 15.86 90.57 15.86 90.42 16.82 95.31 16.82 94.76 20.29 85.87 20.29 87.8 8.13 96.69 8.13 96.13 11.6"/><path class="cls-1" d="M705.28,372.36a5.35,5.35,0,0,1-2.4,3.68l1.83,4.08h-4.17l-1.4-3.35h-1.2l-.53,3.35h-4L695.34,368h6.5a3.5,3.5,0,0,1,2,.57,3.23,3.23,0,0,1,1.25,1.58,4.24,4.24,0,0,1,.2,2.26m-6.5-.93-.32,2h1.72a1,1,0,0,0,.71-.26,1.24,1.24,0,0,0,.39-.75.9.9,0,0,0-.15-.75.77.77,0,0,0-.63-.27Z" transform="translate(-597.61 -359.83)"/><path class="cls-1" d="M711.64,372.82h6.25L717.7,374a6.95,6.95,0,0,1-7.24,6.25,6.29,6.29,0,0,1-2.37-.43,4.85,4.85,0,0,1-1.79-1.23,4.52,4.52,0,0,1-1-2,6.46,6.46,0,0,1-.08-2.61,8.41,8.41,0,0,1,.66-2.15,7.14,7.14,0,0,1,1.16-1.74,7.72,7.72,0,0,1,1.56-1.28,6.94,6.94,0,0,1,1.85-.81,7.24,7.24,0,0,1,2-.28,5.82,5.82,0,0,1,3.33.94,4.47,4.47,0,0,1,1.84,2.62l-4.06,1.07a1.7,1.7,0,0,0-1.69-1,2.51,2.51,0,0,0-1.73.66,3.13,3.13,0,0,0-.94,1.92,2.41,2.41,0,0,0,.33,1.92,1.84,1.84,0,0,0,1.52.66,2.4,2.4,0,0,0,2-1H711.2Z" transform="translate(-597.61 -359.83)"/><polygon class="cls-1" points="127.48 8.13 131.57 8.13 126.58 16.22 125.94 20.29 121.94 20.29 122.59 16.22 120.1 8.13 124.18 8.13 125.15 12.42 127.48 8.13"/><path class="cls-1" d="M672,386.59h-3.88a1,1,0,0,0-.3-.67,1.1,1.1,0,0,0-.83-.3,1.78,1.78,0,0,0-.85.19.76.76,0,0,0-.42.57.34.34,0,0,0,.14.35,1.48,1.48,0,0,0,.52.25l.72.16.85.15c.32.06.59.11.79.17a7.87,7.87,0,0,1,1.29.51,3.64,3.64,0,0,1,.91.67,2.05,2.05,0,0,1,.52,1,3.44,3.44,0,0,1,0,1.29,4.38,4.38,0,0,1-1.84,3.08,6.78,6.78,0,0,1-4,1.1,7.77,7.77,0,0,1-2.78-.43,3.07,3.07,0,0,1-1.66-1.39,3.54,3.54,0,0,1-.31-2.36h4c0,.61.44.91,1.22.91a1.57,1.57,0,0,0,.83-.22.74.74,0,0,0,.38-.52c0-.23-.11-.43-.44-.6a4.55,4.55,0,0,0-1.13-.38c-.43-.08-.9-.17-1.39-.28a4.53,4.53,0,0,1-1-.33,2.57,2.57,0,0,1-1.52-2.94,4.07,4.07,0,0,1,1.86-3,7.38,7.38,0,0,1,4.06-1,4.62,4.62,0,0,1,3.34,1.07,3.52,3.52,0,0,1,.92,3" transform="translate(-597.61 -359.83)"/><polygon class="cls-1" points="85.7 22.91 85.14 26.39 81.94 26.39 80.56 35.07 76.57 35.07 77.95 26.39 74.72 26.39 75.27 22.91 85.7 22.91"/><path class="cls-1" d="M688.93,394.9l-.25-1.63h-4l-.76,1.63h-4.08l6.33-12.16h4.39L693,394.9Zm-2.62-5.11h1.84l-.45-3Z" transform="translate(-597.61 -359.83)"/><polygon class="cls-1" points="105.12 22.91 109.12 22.91 107.19 35.07 102.76 35.07 100.4 29.24 99.48 35.07 95.49 35.07 97.42 22.91 101.85 22.91 104.19 28.74 105.12 22.91"/><path class="cls-1" d="M713.32,382.74a6.65,6.65,0,0,1,1.94.26,5,5,0,0,1,1.6.76A4.3,4.3,0,0,1,718,385a4.73,4.73,0,0,1,.62,1.69,7,7,0,0,1,0,2.13,7.37,7.37,0,0,1-.65,2.12,6.71,6.71,0,0,1-1.16,1.7,7.12,7.12,0,0,1-1.55,1.23,6.71,6.71,0,0,1-1.83.77,8.05,8.05,0,0,1-2,.26h-5.56l1.94-12.16Zm-1.38,8.68a2.83,2.83,0,0,0,1.86-.63,3,3,0,0,0,1-2,2.32,2.32,0,0,0-.36-2,2.09,2.09,0,0,0-1.66-.64h-1.56l-.82,5.21Z" transform="translate(-597.61 -359.83)"/><path class="cls-1" d="M726,394.9l-.25-1.63h-4L721,394.9h-4.08l6.33-12.16h4.39l2.47,12.16Zm-2.62-5.11h1.84l-.45-3Z" transform="translate(-597.61 -359.83)"/><path class="cls-1" d="M742,387.14a5.19,5.19,0,0,1-.83,2.13,5.12,5.12,0,0,1-1.57,1.54l1.82,4.09h-4.16l-1.4-3.35h-1.2l-.53,3.35h-4l1.93-12.16h6.5a3.62,3.62,0,0,1,2,.56,3.23,3.23,0,0,1,1.25,1.58,4.24,4.24,0,0,1,.2,2.26m-6.5-.93-.32,2h1.72a1,1,0,0,0,.71-.26,1.23,1.23,0,0,0,.38-.75.89.89,0,0,0-.14-.75.79.79,0,0,0-.63-.27Z" transform="translate(-597.61 -359.83)"/><path class="cls-1" d="M749,382.74a6.74,6.74,0,0,1,1.94.26,5.08,5.08,0,0,1,1.59.76,4.3,4.3,0,0,1,1.16,1.24,4.55,4.55,0,0,1,.62,1.69,6.64,6.64,0,0,1,0,2.13,7.39,7.39,0,0,1-.66,2.12,6.46,6.46,0,0,1-1.16,1.7,7.06,7.06,0,0,1-1.54,1.23,6.91,6.91,0,0,1-1.84.77,7.93,7.93,0,0,1-2,.26h-5.55l1.93-12.16Zm-1.38,8.68a2.83,2.83,0,0,0,1.86-.63,3.12,3.12,0,0,0,1-2,2.28,2.28,0,0,0-.37-2,2.08,2.08,0,0,0-1.66-.64h-1.55l-.83,5.21Z" transform="translate(-597.61 -359.83)"/><path class="cls-1" d="M665,399.13a1.36,1.36,0,0,1,1.15.54,1.68,1.68,0,0,1,.29,1.36,2.29,2.29,0,0,1-.72,1.37,1.89,1.89,0,0,1-1.32.53h-1.87l-.32,2h-1l.92-5.82Zm-.66,2.95a1,1,0,0,0,.68-.28,1.23,1.23,0,0,0,.38-.75.9.9,0,0,0-.14-.74.72.72,0,0,0-.6-.27h-1.68l-.31,2Z" transform="translate(-597.61 -359.83)"/><path class="cls-1" d="M687.07,405l-.27-1.16H684l-.63,1.16h-1.06l3.25-5.82h1.13l1.4,5.82Zm-2.53-2.07h2.06l-.61-2.67Z" transform="translate(-597.61 -359.83)"/><path class="cls-1" d="M710.77,401a2.35,2.35,0,0,1-.46,1.1,2.21,2.21,0,0,1-.89.67l1,2.15h-1.09l-.86-2h-1.57l-.32,2h-1l.92-5.82h2.9a1.36,1.36,0,0,1,1.15.54,1.64,1.64,0,0,1,.29,1.36m-1.41.77a1.28,1.28,0,0,0,.37-.75.9.9,0,0,0-.14-.74.72.72,0,0,0-.6-.27h-1.67l-.32,2h1.67a1,1,0,0,0,.69-.28" transform="translate(-597.61 -359.83)"/><polygon class="cls-1" points="132.15 39.3 131.22 45.12 130.19 45.12 131.11 39.3 132.15 39.3"/><path class="cls-1" d="M751.77,400.83h-1a.79.79,0,0,0-.24-.7,1.31,1.31,0,0,0-.89-.26,1.93,1.93,0,0,0-.95.22.86.86,0,0,0-.45.65c0,.25.1.45.41.59a6.6,6.6,0,0,0,1.09.29h.1a7.41,7.41,0,0,1,.8.21,2,2,0,0,1,.54.3.87.87,0,0,1,.31.43,1.36,1.36,0,0,1,0,.61,2,2,0,0,1-.82,1.33,3,3,0,0,1-1.79.49,2.69,2.69,0,0,1-1.74-.48,1.42,1.42,0,0,1-.44-1.39h1.06a.75.75,0,0,0,.27.74,1.56,1.56,0,0,0,1,.27,1.64,1.64,0,0,0,1-.25,1,1,0,0,0,.45-.67.57.57,0,0,0,0-.26.4.4,0,0,0-.16-.21,2,2,0,0,0-.24-.16,2.45,2.45,0,0,0-.34-.13l-.37-.1-.41-.1-.4-.09a2.33,2.33,0,0,1-1-.52,1,1,0,0,1-.22-.88,1.79,1.79,0,0,1,.81-1.27,3.24,3.24,0,0,1,1.8-.44,2.22,2.22,0,0,1,1.54.46,1.43,1.43,0,0,1,.39,1.3" transform="translate(-597.61 -359.83)"/></svg>