<svg id="Calque_1" data-name="Calque 1" xmlns="http://www.w3.org/2000/svg" viewBox="0 0 70.51 101.75"><defs><style>.cls-1{fill:#c8b681;}</style></defs><title>logo-cali-condors-over</title><path class="cls-1" d="M676.37,419.42h-.74a17.53,17.53,0,0,1-2.5-.19,19.6,19.6,0,0,1-2.54-.47c1.57.83,3.24,1.63,5,2.4l.38.17.38-.17q2.75-1.19,5.14-2.46a19.91,19.91,0,0,1-2.77.53,17.35,17.35,0,0,1-2.38.19" transform="translate(-640.75 -333.13)"/><path class="cls-1" d="M704.6,385V341.87l-14.43,7.64v6.26L676,363.29l-14.17-7.52v-6.26l-14.43-7.64V385a12,12,0,0,0,0,1.28,27.69,27.69,0,0,0,.71,6,34.58,34.58,0,0,0,7,14.13A32.75,32.75,0,0,1,652.8,402l0,0a40.52,40.52,0,0,1-2.37-8.28,26.74,26.74,0,0,1-1.14-7.38c0-.38,0-.67,0-.86s0-.17,0-.21v-.05h0V345.07l10.58,5.6v6.26l16.1,8.54,16.09-8.54v-6.26l10.59-5.6v40.11h0a.42.42,0,0,0,0,.07c0,.15,0,.51,0,1.06a25.46,25.46,0,0,1-.67,5.57c-.2.88-.45,1.82-.78,2.81a40.86,40.86,0,0,1-2.19,7.28v0a34.82,34.82,0,0,1-2.65,5.05,36,36,0,0,0,6.22-10.46,29.67,29.67,0,0,0,2-10.28,12,12,0,0,0,0-1.28" transform="translate(-640.75 -333.13)"/><path class="cls-1" d="M657.69,352l-6.16-3.26v27.09c.24-.79.5-1.53.76-2.21V350l4.64,2.46v6.26l2.09,1.1,15.13,8,1.85,1,1.84-1,15.13-8,2.09-1.1v-6.26L699.7,350v23.93c.26.7.52,1.47.77,2.28V348.74L694.3,352v6.26l-1.69.89-15.13,8L676,368l-1.49-.79-15.13-8-1.69-.89V352Z" transform="translate(-640.75 -333.13)"/><path class="cls-1" d="M667,396.55c-.2,2.84.12,5.66.11,8.49,0,1.65,0,3.3-.15,4.95a19,19,0,0,1-3.25-3.37,23,23,0,0,1-3-5.15c-.19-.47-.35-.93-.51-1.38.19-1.29.35-2.58.49-3.87a14.18,14.18,0,0,1,4.25-8.46,15.51,15.51,0,0,1,9-4.65,12.37,12.37,0,0,1,6.25.7,14.33,14.33,0,0,1,6.36,4.62,1.48,1.48,0,0,1,.33,1.22,8,8,0,0,1-1.58,3.62c0-.32.07-.51.09-.71a6.16,6.16,0,0,0-1-4.32,7.48,7.48,0,0,0-3.05-2.19,10.61,10.61,0,0,0-6-.95,6.2,6.2,0,0,0-3.35,1.66,13.47,13.47,0,0,0-5,9.79m10.23,16.6a14.24,14.24,0,0,0,8-3.5,26,26,0,0,1-5.24-1.61,15.66,15.66,0,0,1-4.47-2.6A12.83,12.83,0,0,1,671.27,395a9.29,9.29,0,0,1,2.26-6.15,11.69,11.69,0,0,1,3.74-2.82,2.6,2.6,0,0,0-.91-.12,7.7,7.7,0,0,0-5.56,3.23,1.06,1.06,0,0,0-.18.37,25.54,25.54,0,0,0-.76,10.75,18.15,18.15,0,0,0,3.38,8.33,38.81,38.81,0,0,0,4,4.57m10.9-6.53a24,24,0,0,0,3-5.15c.16-.4.3-.8.43-1.18l-.89.38a18.06,18.06,0,0,1-11.75.65,10.49,10.49,0,0,1-6.63-5.27.47.47,0,0,0-.15-.12.45.45,0,0,0-.05.13v.43c.1,4.69,2.82,7.69,6.53,10a17.23,17.23,0,0,0,4.91,1.75c.91.23,1.82.41,2.73.55a20.34,20.34,0,0,0,1.92-2.18M686,384.36a36.58,36.58,0,0,0-3.13-2.12,13.84,13.84,0,0,0-5.53-1.52,15.7,15.7,0,0,0-4.74.06,28.18,28.18,0,0,0-9.76,4.21,37,37,0,0,0-3.31,2.47,22.58,22.58,0,0,0-.16,9.24.19.19,0,0,1,0-.07,25.41,25.41,0,0,1,3.39-7.11,15.93,15.93,0,0,1,12.89-7.15c4.52-.27,8.2,1.81,11,5.34l.28.34.21-.09c-.32-1.11-.62-2.22-.94-3.32a.67.67,0,0,0-.25-.28m-14.7,28.08a13.14,13.14,0,0,0,3.39.72l1.22,0h.34l-.06-.06a27,27,0,0,1-4.07-5.14,18,18,0,0,1-3.09-9.25c0-.9-.07-1.79-.11-2.68a25.93,25.93,0,0,0-.48,6.15,26.77,26.77,0,0,0,2.43,9.37c.13.29.28.58.43.86m-.75-.29a31.41,31.41,0,0,1-2.65-8.62c0,.77-.06,1.54-.07,2.32,0,1.59,0,3.19,0,4.79a15.28,15.28,0,0,0,2.73,1.51m18.16-22.71a.47.47,0,0,0,0-.31c-.31-.79-.63-1.58-1-2.37l-.18,0a13,13,0,0,1-.94,5.72,8.9,8.9,0,0,0,2.07-3.08m-5.88,4.84a5.16,5.16,0,0,0,1.79-.74,1.67,1.67,0,0,0,.14-1.74l-1.9,2.34,0,.14" transform="translate(-640.75 -333.13)"/><path class="cls-1" d="M697.23,401.11a38.33,38.33,0,0,0,2.34-8.38c.08-.48.14-1,.2-1.43a36.52,36.52,0,0,0,.21-6c-.06-1-.15-2-.28-2.95a32.37,32.37,0,0,0-4.24-12.55H686.9a1,1,0,0,0-1,.89v1.38h3.78l-2.85,2.19s-.68-1.54-1.18-1.54h-4.43c-.86,0-1,1-1,1.78s.18,2.19.18,2.19c.12-1.22,5.85-1.95,10.47,3.32a15.5,15.5,0,0,1,2.47,3.92,23.82,23.82,0,0,1,.79,14.9,28.68,28.68,0,0,1-1.14,3.52,26.37,26.37,0,0,1-1.36,2.77,23.41,23.41,0,0,1-1.88,2.88,1.33,1.33,0,0,1-.14.19c-.23.3-.47.59-.71.87s-.57.65-.86.95a17.46,17.46,0,0,1-8.13,4.9l-.57.13-.75.15c-.38.06-.77.1-1.16.14s-.81.05-1.22.05h-.49c-.36,0-.71,0-1.07,0a14.21,14.21,0,0,1-1.72-.23l-.68-.14-.2-.05a16.21,16.21,0,0,1-4.36-1.85c-.31-.19-.61-.39-.91-.59a20.68,20.68,0,0,1-4.6-4.47,1.13,1.13,0,0,0-.1-.13,25.83,25.83,0,0,1-1.94-3c-.14-.27-.29-.54-.43-.82-.27-.54-.53-1.1-.76-1.66s-.41-1.06-.58-1.59a26,26,0,0,1-1.23-11,20.47,20.47,0,0,1,1.46-5.85A15.47,15.47,0,0,1,661,380c4.62-5.26,10.35-4.53,10.48-3.32,0,0,.12-1.38.18-2.19s-.13-1.78-1-1.78h-4.43c-.5,0-1.17,1.54-1.17,1.54l-2.86-2.19H666v-1.37a1,1,0,0,0-1-.89h-8.56a32,32,0,0,0-4.12,11.73,33.68,33.68,0,0,0-.4,3.93h0a34.89,34.89,0,0,0,.25,6.13,38,38,0,0,0,2.5,9.54,33.82,33.82,0,0,0,2.65,5c.4.62.84,1.25,1.33,1.89a24.32,24.32,0,0,0,7.81,6.88q.78.42,1.62.78a19.35,19.35,0,0,0,2.4.83,8.15,8.15,0,0,0,.85.22,17,17,0,0,0,2.08.37h0a14.57,14.57,0,0,0,2.3.17h.49a15.11,15.11,0,0,0,1.51-.08c.27,0,.53-.05.8-.09a17.55,17.55,0,0,0,2-.35l.72-.17.5-.15a18.88,18.88,0,0,0,2.12-.75,22.55,22.55,0,0,0,7.86-5.75c.32-.35.62-.71.91-1.06.59-.73,1.12-1.45,1.61-2.16a34.07,34.07,0,0,0,3-5.58M656,373.8h0c-.33,1.53.1,3.47,4,4.13,0,0-4.45,4.84-4.66,13.91a31.78,31.78,0,0,0,.74,7.44c.1.48.21,1,.34,1.46a22.93,22.93,0,0,1-1.68-4,28.91,28.91,0,0,1-.78-3,32.63,32.63,0,0,1,2.06-20m39.84,23.61c2-12.65-4.28-19.47-4.28-19.47,3.85-.66,4.29-2.6,4-4.13h0A32.45,32.45,0,0,1,697,396.21a26.75,26.75,0,0,1-1.45,3.79c-.24.49-.39.75-.39.75l.06-.22c.27-1.08.48-2.12.64-3.12" transform="translate(-640.75 -333.13)"/><path class="cls-1" d="M648,432.47l-.08.14a2,2,0,0,1-1.21.83h0a6,6,0,0,1-1.6.16,4.54,4.54,0,0,1-2.21-.4,1.63,1.63,0,0,1-.65-.7,2.77,2.77,0,0,1-.22-1.15,2.71,2.71,0,0,1,.22-1.15,1.63,1.63,0,0,1,.65-.7,4.56,4.56,0,0,1,2.21-.41,6.39,6.39,0,0,1,1.6.16h0a2,2,0,0,1,1.21.83l.08.14,1.16-.55-.1-.18a3,3,0,0,0-1.49-1.27,6.33,6.33,0,0,0-2.46-.41,5.54,5.54,0,0,0-3.06.71h0a2.68,2.68,0,0,0-1,1.16,4.49,4.49,0,0,0,0,3.33,2.73,2.73,0,0,0,1,1.16h0a5.53,5.53,0,0,0,3.06.7,6.38,6.38,0,0,0,2.47-.41,2.93,2.93,0,0,0,1.49-1.27l.1-.17-.18-.09Z" transform="translate(-640.75 -333.13)"/><path class="cls-1" d="M658.14,428.52h0a7,7,0,0,0-6.13,0h0a2.77,2.77,0,0,0-1,1.16,3.92,3.92,0,0,0-.32,1.67A4,4,0,0,0,651,433a2.9,2.9,0,0,0,1,1.16h0a7.15,7.15,0,0,0,6.13,0h0a2.75,2.75,0,0,0,1-1.16,4,4,0,0,0,.32-1.67,3.92,3.92,0,0,0-.32-1.67,2.63,2.63,0,0,0-1-1.16m-.21,4a1.54,1.54,0,0,1-.65.71h0a6.28,6.28,0,0,1-4.41,0h0a1.57,1.57,0,0,1-.65-.7,3.14,3.14,0,0,1,0-2.31,1.57,1.57,0,0,1,.65-.7,4.68,4.68,0,0,1,2.21-.4,4.54,4.54,0,0,1,2.2.41,1.57,1.57,0,0,1,.65.7,2.59,2.59,0,0,1,.23,1.15,2.54,2.54,0,0,1-.23,1.14" transform="translate(-640.75 -333.13)"/><polygon class="cls-1" points="27.36 99.84 21.89 94.68 20.74 94.68 20.74 101.75 22.02 101.75 22.02 96.6 27.5 101.75 27.57 101.75 28.64 101.75 28.64 94.68 27.36 94.68 27.36 99.84"/><path class="cls-1" d="M678.45,428.53a5.43,5.43,0,0,0-3.07-.72h-3.53v7.06h3.53a5.56,5.56,0,0,0,3.07-.7h0a2.83,2.83,0,0,0,1-1.16,4.06,4.06,0,0,0,.32-1.66,4.11,4.11,0,0,0-.32-1.67,2.8,2.8,0,0,0-1-1.15m-.21,4a1.52,1.52,0,0,1-.65.7h0a4.47,4.47,0,0,1-2.21.4h-2.25v-4.51h2.25a4.56,4.56,0,0,1,2.21.41,1.52,1.52,0,0,1,.65.7,2.56,2.56,0,0,1,.22,1.15,2.62,2.62,0,0,1-.22,1.15" transform="translate(-640.75 -333.13)"/><path class="cls-1" d="M678.45,428.53" transform="translate(-640.75 -333.13)"/><path class="cls-1" d="M688.82,428.52h0a7,7,0,0,0-6.14,0h0a2.68,2.68,0,0,0-1,1.16,3.92,3.92,0,0,0-.33,1.67,4,4,0,0,0,.33,1.67,2.8,2.8,0,0,0,1,1.16h0a5.62,5.62,0,0,0,3.06.69,5.68,5.68,0,0,0,3.07-.69,2.9,2.9,0,0,0,1-1.16,4.15,4.15,0,0,0,.32-1.67,4.08,4.08,0,0,0-.32-1.67,2.77,2.77,0,0,0-1-1.16m-.21,4a1.6,1.6,0,0,1-.65.71h0a6.28,6.28,0,0,1-4.41,0h0a1.63,1.63,0,0,1-.65-.7,3.14,3.14,0,0,1,0-2.31,1.63,1.63,0,0,1,.65-.7,4.71,4.71,0,0,1,2.21-.4,4.52,4.52,0,0,1,2.2.41h0a1.63,1.63,0,0,1,.65.7,2.74,2.74,0,0,1,.22,1.15,2.69,2.69,0,0,1-.22,1.14" transform="translate(-640.75 -333.13)"/><path class="cls-1" d="M699.26,431.37a1.69,1.69,0,0,0,.6-.62,1.72,1.72,0,0,0,.2-.85,1.65,1.65,0,0,0-.42-1.15,2.45,2.45,0,0,0-1.22-.69,9.83,9.83,0,0,0-2.55-.25h-3.71v7.06h1.28V432h2.24l2.9,2.88h1.81l-3-2.95a4.17,4.17,0,0,0,1.84-.55m-5.82-.67v-1.61h2.7a6.81,6.81,0,0,1,2.06.24,1.3,1.3,0,0,1,.45.26.43.43,0,0,1,0,.62,1.52,1.52,0,0,1-.8.36,8,8,0,0,1-1.64.13Z" transform="translate(-640.75 -333.13)"/><path class="cls-1" d="M710.83,431.64a2.69,2.69,0,0,0-1.23-.68h0a9.74,9.74,0,0,0-2.56-.26c-.48,0-.88,0-1.2,0a5.63,5.63,0,0,1-.75-.06,2.7,2.7,0,0,1-1-.3.68.68,0,0,1-.21-.2.33.33,0,0,1-.06-.22.39.39,0,0,1,.13-.31,1.83,1.83,0,0,1,.88-.37,9.45,9.45,0,0,1,1.79-.14l1.18,0a5.94,5.94,0,0,1,.74.06h0a3.36,3.36,0,0,1,1,.25.84.84,0,0,1,.42.38l.06.15,1.23-.31,0-.19a1.76,1.76,0,0,0-.65-.92,3.05,3.05,0,0,0-1.25-.53,12.08,12.08,0,0,0-2.41-.18,10.85,10.85,0,0,0-2.65.23h0a2.66,2.66,0,0,0-1.27.68,1.76,1.76,0,0,0,0,2.32,2.59,2.59,0,0,0,1.2.69,9.68,9.68,0,0,0,2.51.26c.5,0,.91,0,1.24,0a5.82,5.82,0,0,1,.76.06,2.7,2.7,0,0,1,1,.3.58.58,0,0,1,.21.2.36.36,0,0,1,.07.22.44.44,0,0,1-.13.32,1.83,1.83,0,0,1-.88.37,10.39,10.39,0,0,1-1.78.13c-.45,0-.83,0-1.15,0s-.56,0-.75,0a3.88,3.88,0,0,1-1-.25.84.84,0,0,1-.44-.37l-.07-.14-1.22.34.06.19a1.77,1.77,0,0,0,.66.9,3.19,3.19,0,0,0,1.24.5h0a13,13,0,0,0,2.4.16,11.63,11.63,0,0,0,2.64-.22h0a2.58,2.58,0,0,0,1.27-.68,1.79,1.79,0,0,0,0-2.33" transform="translate(-640.75 -333.13)"/><path class="cls-1" d="M661.66,339.62h0a5.65,5.65,0,0,0,3.07.7,6.41,6.41,0,0,0,2.47-.41,3,3,0,0,0,1.49-1.27l.1-.17-.18-.09-1-.46-.09.14a1.92,1.92,0,0,1-1.21.83,6.25,6.25,0,0,1-1.59.16,4.64,4.64,0,0,1-2.21-.4,1.6,1.6,0,0,1-.65-.71,2.71,2.71,0,0,1-.22-1.15,2.77,2.77,0,0,1,.22-1.15,1.55,1.55,0,0,1,.65-.69h0a4.56,4.56,0,0,1,2.21-.41,6.25,6.25,0,0,1,1.59.16h0a1.92,1.92,0,0,1,1.21.83l.09.14,1.16-.56-.1-.17a3,3,0,0,0-1.49-1.27,6.33,6.33,0,0,0-2.46-.41,5.52,5.52,0,0,0-3.07.71h0a2.8,2.8,0,0,0-1,1.15,4.52,4.52,0,0,0,0,3.34,2.8,2.8,0,0,0,1,1.15" transform="translate(-640.75 -333.13)"/><polygon class="cls-1" points="46.94 7.2 46.94 5.93 41.15 5.93 41.15 0.14 39.86 0.14 39.86 7.2 40.05 7.2 46.94 7.2"/><path class="cls-1" d="M690.89,333.91l-.25-.45a2.52,2.52,0,0,1-.17-.33l-1,.78h1.45Z" transform="translate(-640.75 -333.13)"/><polygon class="cls-1" points="48.78 7.2 48.96 7.2 50.06 7.2 50.06 1.54 48.78 1.54 48.78 7.2"/><polygon class="cls-1" points="31.93 4.69 31.93 4.69 32.38 3.92 31.93 4.69"/><path class="cls-1" d="M676.21,337.82l-.44-.76Z" transform="translate(-640.75 -333.13)"/><polygon class="cls-1" points="34.31 0.14 33.08 0.14 29.01 7.21 30.48 7.21 30.98 6.35 31.94 4.69 31.93 4.69 32.38 3.93 32.38 3.92 33.7 1.65 35.01 3.92 35.02 3.93 35.46 4.69 36.42 6.35 36.92 7.21 37.02 7.21 38.4 7.21 34.31 0.14"/><path class="cls-1" d="M673.12,337.05Z" transform="translate(-640.75 -333.13)"/><polygon class="cls-1" points="35.01 3.92 35.01 3.92 35.02 3.93 35.01 3.92"/></svg>