<svg id="Calque_1" data-name="Calque 1" xmlns="http://www.w3.org/2000/svg" viewBox="0 0 100.33 86.88"><defs><style>.cls-1{fill:#fff;}</style></defs><title>logo-ny-breakers-over</title><polygon class="cls-1" points="78.33 49.38 77.18 50.25 75.72 50.03 74.69 51.72 74.58 54.69 76.16 57.01 76.16 57.05 78.33 49.38"/><polygon class="cls-1" points="12.23 15.98 12.39 16.52 24.84 60.38 28.15 60.38 15.97 17.47 16.13 18.06 16.14 18.06 15.97 17.47 27.99 12.79 28.85 12.46 32.95 10.86 33.15 10.79 50.02 4.22 84.08 17.47 78.91 35.68 79.3 35.56 80.7 34.64 80.63 33.08 82.62 30.98 82.72 28.37 83.13 30.99 81.51 33.27 81.52 34.1 82.93 33.18 87.66 16.52 87.81 15.98 87.81 15.98 88.13 14.86 87.1 14.41 87.07 14.44 50.11 0.07 50.11 0 50.02 0.03 49.94 0 49.94 0.07 12.97 14.44 12.95 14.41 11.91 14.86 12.23 15.98 12.23 15.98"/><path class="cls-1" d="M677.13,409.06a1.57,1.57,0,0,1-.92.29H673.9v.5h3.34c.74-2.25,1.66-5.05,2.59-7.9v0a1.37,1.37,0,0,1,.24-.4h-1.34a1.3,1.3,0,0,1,.25.75v1.41a1.27,1.27,0,0,1-.53,1,1.59,1.59,0,0,1-.93.3h-3.63v.48h2.3a1.38,1.38,0,0,1,1.45,1.31V408a1.26,1.26,0,0,1-.53,1" transform="translate(-625.83 -340.56)"/><polygon class="cls-1" points="80.28 42.5 76.09 49.41 76.84 49.42 78.69 48.1 80.28 42.5"/><path class="cls-1" d="M667.56,414l8.3,7.66,8.63-8a1.44,1.44,0,0,1-.54-.77l-.28-1.11-1.68,0-.26,1.06v0a1.57,1.57,0,0,1-1.52,1.05h0l-2.48,0h-4.32l-4.27.06-1.56,0" transform="translate(-625.83 -340.56)"/><polygon class="cls-1" points="50.02 5.66 39.76 9.65 55.84 16.64 63.27 12.53 63.41 21.63 60.72 23.08 65.13 35.42 64.7 38.8 74.54 35.15 71.83 40.43 76.25 37.55 77.16 36.95 77.76 34.82 78.58 31.96 78.58 31.96 82.45 18.27 50.02 5.66"/><path class="cls-1" d="M698.18,400.94a1.45,1.45,0,0,1,.3,0,1.75,1.75,0,0,1,.33,0H701l.47-1.64,0-1.72-2-2.14.07-1.12-1.88,6.62Z" transform="translate(-625.83 -340.56)"/><path class="cls-1" d="M688.58,400.94h2.26a1.39,1.39,0,0,1,1.46,1.33v2.17l1.77-2.71v0a1.85,1.85,0,0,1,1.53-.77h.72l.7-2.47-.3,0h0L687,399.68l-21.64-7.53-1.45-5.6-12.68-8-2.55-1.22L655,399.58h0l.38,1.36h1.46a2.7,2.7,0,0,1,1.93.77l.08.1-.19-.36a1.51,1.51,0,0,1,1.15-.51h7.51a2.81,2.81,0,0,1,1.7.55,1.5,1.5,0,0,1,1.19-.55h14.07a1.61,1.61,0,0,1,1.53,1v0l1.33,4.06v-3.75a1.28,1.28,0,0,1,.37-.9,1.54,1.54,0,0,1,1.08-.43" transform="translate(-625.83 -340.56)"/><path class="cls-1" d="M688.25,414.1l-.26,0h-.06l-1.85-.06-10.22,9.43-12.38-11.41v.78a1.4,1.4,0,0,1-1.42,1.34l-.54,0,13.09,12.06,1,.94.14.13h0l.08.08h0l.17-.16,1.07-1,13.1-12.07-1.62-.07a1.88,1.88,0,0,1-.33,0" transform="translate(-625.83 -340.56)"/><polygon class="cls-1" points="39.68 9.68 39.69 9.68 39.76 9.65 39.76 9.65 39.68 9.68"/><path class="cls-1" d="M702.5,384.15h0l3.31-5.46-2.16,1.42-1.71,1.11-7.76,5.08-3.13,2,4.1-8-5.4,2-1.9-2,.53-4.06-4.94-13.8,3.25-1.77-.05-3.35L681.8,360l-5.47-2.37,1.6,5.6L675,357.07l-8.52-3.7,1.57,4.39,3.62,10.11-6.1-11.19-1.68-3.08-3.36-1.42h0l-17.13,6.67h0l1.27,4.46,8.08,6.23,5.88,6.17-6.1-5.32-7-4.06.8,2.82,1.41,4.95,4.69,2.24,10,6.34,1-8,4,15.51,2.91,1,5.49-1.69,10-3.07-8.1,3.71-4.46,2.05,7.19,2.5,6.74-2.27-4.75,3,4.83,1.67,7.94-.93,4.68-7.7Zm-21.93-4.63-3.68-6.87,7.18,4.94,0,2.85v1Z" transform="translate(-625.83 -340.56)"/><path class="cls-1" d="M646.37,401.86h-2.48a.76.76,0,0,0-.71.44c-.62,1.48-1.23,3-1.85,4.52h-.08c-.6-1.49-1.19-3-1.79-4.52a.77.77,0,0,0-.71-.45h-2.48a.37.37,0,0,0-.21.06.53.53,0,0,0-.26-.06h-2.26a.52.52,0,0,0-.54.5c0,2.54,0,5.07,0,7.61h0q-1.76-3.69-3.51-7.64a.83.83,0,0,0-.75-.48h-2.31a.54.54,0,0,0-.54.54v14a.45.45,0,0,0,.54.46l2.25-.35a.62.62,0,0,0,.53-.6c0-2.62,0-5.25,0-7.88h.05c1.17,2.57,2.33,5.05,3.5,7.45a.7.7,0,0,0,.75.35l2.29-.3a.57.57,0,0,0,.54-.55c0-3.91,0-7.82.05-11.74q1.67,3.75,3.35,7.27a1.13,1.13,0,0,1,0,.18c0,1.3,0,2.6,0,3.9a.43.43,0,0,0,.54.41l2-.22a.58.58,0,0,0,.54-.52c0-1.26,0-2.53,0-3.79a.67.67,0,0,1,0-.19c1.27-2.74,2.55-5.4,3.82-8,.09-.2-.08-.41-.34-.41" transform="translate(-625.83 -340.56)"/><path class="cls-1" d="M658,408.19c-.26-.18-.53-.35-.8-.52,0,0,0-.07,0-.11l.61-.44L658,407a1.5,1.5,0,0,0,.48-1v-.39c0-.83,0-1.66,0-2.5a1.47,1.47,0,0,0-1.61-1.24h-7.12a.5.5,0,0,0-.55.44q0,5.68,0,11.37c0,.25.24.42.54.4q3.78-.31,7.56-.54a1.58,1.58,0,0,0,1.62-1.33v-.45c0-.77,0-1.54,0-2.31,0-.55-.31-.9-.85-1.25m-5.51-2.29c0-.53,0-1,0-1.57,0-.05,0-.09.11-.09l2.34,0h.16c.06,0,.1,0,.1.08v2.29a.1.1,0,0,1-.11.09l-1.71.05-.79,0c-.07,0-.11,0-.11-.08v-.76m3.13,5.31c0,.05-.05.09-.12.09l-2.93.16c-.06,0-.1,0-.1-.08,0-.78,0-1.56,0-2.34,0-.06,0-.09.11-.09,1-.05,1.95-.09,2.93-.12.06,0,.11,0,.1.08v2.3" transform="translate(-625.83 -340.56)"/><path class="cls-1" d="M662.56,412.85c0-.54,0-1.07,0-1.62s0-1.2,0-1.81v-.26c0-.05,0-.08.1-.08l.52,0a.19.19,0,0,1,.15.06c.77,1.06,1.54,2.1,2.31,3.14.12.18.25.35.38.52a.87.87,0,0,0,.5.3.92.92,0,0,0,.29,0l2.42-.06c.24,0,.41-.2.29-.35l-2.7-3.66s0-.06.07-.06h.39a1.75,1.75,0,0,0,1.43-.68.91.91,0,0,0,.19-.54c0-1.56,0-3.13,0-4.69a.91.91,0,0,0-.19-.54,1.72,1.72,0,0,0-1.43-.66H659.8a.6.6,0,0,0-.27.07.31.31,0,0,0-.16.11h0l-.05.08a.58.58,0,0,0,0,.4h0v0c0,1.24,0,2.49,0,3.73v1.92h0c0,1.29,0,2.58,0,3.88v.9a.36.36,0,0,0,.18.3h0a.55.55,0,0,0,.35.08l.82,0,1.44-.06a.51.51,0,0,0,.54-.44m0-8.64a.1.1,0,0,1,.11-.09l2.88,0c.07,0,.11,0,.11.08v2.5c0,.05,0,.08-.11.08l-2.89.05c-.06,0-.11,0-.11-.08,0-.84,0-1.68,0-2.52" transform="translate(-625.83 -340.56)"/><path class="cls-1" d="M706.19,411.91l-4.43-.31c-.07,0-.11,0-.11-.09,0-.79,0-1.59,0-2.38,0-.05.05-.08.11-.08l3.1.16a.47.47,0,0,0,.54-.42c0-.47,0-.94,0-1.4a.53.53,0,0,0-.54-.47l-3.1-.11c-.07,0-.11,0-.11-.09,0-.79,0-1.57,0-2.36a.09.09,0,0,1,.1-.09l4.44.08a.49.49,0,0,0,.54-.44c0-.53,0-1.06,0-1.6a.51.51,0,0,0-.54-.45h-7.34a.61.61,0,0,0-.36.11.34.34,0,0,0-.27-.11h-2.56a.94.94,0,0,0-.77.37l-2.74,4.18a.21.21,0,0,1-.15.06h-.45c-.07,0-.12,0-.12-.09,0-1.36,0-2.73,0-4.1,0-.23-.23-.41-.54-.41h-2.26c-.3,0-.53.18-.53.41q0,4.07,0,8.14c0,.49,0,1,0,1.47-.13-.38-.25-.76-.37-1.14-.93-2.85-1.85-5.69-2.77-8.49a.69.69,0,0,0-.67-.39h-2.9a.72.72,0,0,0-.67.38c-.94,2.88-1.88,5.76-2.82,8.62a.71.71,0,0,0-.34-.08c-1.48,0-3,0-4.44,0-.07,0-.11,0-.11-.08v-2.19s0-.07.11-.07h3.11c.3,0,.53-.18.53-.4v-1.26c0-.22-.23-.39-.53-.39H673.1c-.07,0-.11,0-.11-.07v-2.17s0-.08.11-.08h4.44c.3,0,.54-.18.54-.4v-1.41c0-.22-.24-.4-.54-.4H670.2c-.3,0-.54.18-.54.4v0c0,2.08,0,4.17,0,6.25,0,.79,0,1.57,0,2.36h0v1.75a.39.39,0,0,0,.3.35h7.78l2.48,0a.68.68,0,0,0,.65-.39c.13-.56.27-1.11.4-1.67a.14.14,0,0,1,.13-.08l2.89.05a.14.14,0,0,1,.13.08c.15.57.3,1.14.44,1.7a.58.58,0,0,0,.36.36.88.88,0,0,0,.29.06l1.55.05.93,0a.56.56,0,0,0,.3-.09.76.76,0,0,0,.35.11l2.26.1c.3,0,.54-.16.54-.39,0-1.26,0-2.52,0-3.79v-.33c0-.05,0-.08.1-.08h.5a.17.17,0,0,1,.15.07l1.47,2.22c.46.7.93,1.41,1.39,2.13a1.13,1.13,0,0,0,.8.42l2.63.17a.48.48,0,0,0,.18,0,.84.84,0,0,0,.24.06c2.44.17,4.89.38,7.34.61a.44.44,0,0,0,.53-.4c0-.53,0-1.07,0-1.6a.55.55,0,0,0-.54-.5M683.8,409l-1.92,0s-.11,0-.09-.08c.34-1.34.67-2.69,1-4h0c.35,1.35.69,2.7,1,4.06,0,.05,0,.08-.08.08m12.06,0-.84-1.26v-.14c1.08-1.65,2.17-3.32,3.25-5,0,1.4,0,2.79,0,4.19l0,6c-.82-1.28-1.64-2.53-2.46-3.77" transform="translate(-625.83 -340.56)"/><path class="cls-1" d="M714.53,410.45a.05.05,0,0,1,.06-.07l.39,0a1.41,1.41,0,0,0,1.61-1.34c0-1.91,0-3.82,0-5.73a1.56,1.56,0,0,0-1.62-1.47h-7.51a.58.58,0,0,0-.26.06.44.44,0,0,0-.28.39c0,.92,0,1.84,0,2.76,0,2.05,0,4.1,0,6.15,0,.94,0,1.87,0,2.81a.47.47,0,0,0,.16.34.63.63,0,0,0,.38.16h0l2.22.22a.43.43,0,0,0,.53-.4c0-1.4,0-2.8,0-4.21a.09.09,0,0,1,.11-.08l.51,0a.25.25,0,0,1,.16.09q1.35,2.25,2.7,4.6a1.1,1.1,0,0,0,.8.52q1.2.13,2.4.3a.26.26,0,0,0,.28-.4c-.9-1.63-1.8-3.21-2.7-4.76m-1.28-2.82-2.88-.14c-.07,0-.11,0-.11-.09,0-1,0-1.92,0-2.87,0-.06,0-.09.11-.09l2.88.06a.09.09,0,0,1,.1.1c0,1,0,2,0,2.95a.09.09,0,0,1-.11.08" transform="translate(-625.83 -340.56)"/><path class="cls-1" d="M725.65,408.71c-1.66-.5-3.32-1-5-1.45-.07,0-.11-.07-.11-.13,0-.78,0-1.56,0-2.34a.1.1,0,0,1,.11-.1l2,.06a.1.1,0,0,1,.1.11c0,.5,0,1,0,1.51a.37.37,0,0,0,.49.34l2.35-.85a.77.77,0,0,0,.49-.73v-1.66a1.62,1.62,0,0,0-1.61-1.61h-5.65a1.63,1.63,0,0,0-1.43.82,1.42,1.42,0,0,0-.08.18,1.29,1.29,0,0,0-.1.48c0,1.8,0,3.61,0,5.41a.66.66,0,0,0,.26.5l.08.07a1,1,0,0,0,.18.08q2.49.74,5,1.54a.15.15,0,0,1,.1.14c0,.78,0,1.56,0,2.35a.09.09,0,0,1-.11.09c-.7-.09-1.41-.17-2.11-.24a.13.13,0,0,1-.11-.12v-1.48a.37.37,0,0,0-.49-.35l-2.34.67-.19.1a.64.64,0,0,0-.3.55v.64c0,.29,0,.58,0,.88a1.58,1.58,0,0,0,.39,1,2,2,0,0,0,.56.47,1.91,1.91,0,0,0,.66.22c1.91.26,3.83.54,5.74.83a1.35,1.35,0,0,0,1.61-1.36v-5.9a.77.77,0,0,0-.52-.71" transform="translate(-625.83 -340.56)"/><polygon class="cls-1" points="89.08 44.72 86.63 42.81 81.69 44.03 89.08 44.72"/><polygon class="cls-1" points="87.6 33.61 89.81 33.77 90.17 32.46 87.6 33.61"/><polygon class="cls-1" points="87.83 38.24 89.79 34.81 87.83 35.97 87.83 38.24"/><polygon class="cls-1" points="86.04 33.3 86.14 30.88 82.89 35.31 83.53 34.9 84.14 34.51 86.04 33.3"/><path class="cls-1" d="M715,381.1l.18-.1.59-1.44a.15.15,0,0,0-.1.05l-2.1.94-.06,0-.15.74-.15.76,0,0,.83-.46.94-.53" transform="translate(-625.83 -340.56)"/><polygon class="cls-1" points="82.65 38.96 82.14 41.86 86.13 39.18 85.85 35.35 85.11 35.99 84.97 36.11 84.49 37.69 83.76 40.09 84.14 37.73 84.3 36.7 84.14 36.84 83.72 37.21 82.83 37.98 82.65 38.96"/></svg>